<svg width="1859" height="2854" viewBox="0 0 1859 2854" fill="none" xmlns="http://www.w3.org/2000/svg">
<rect x="-26.8281" width="1908" height="2874" fill="url(#paint0_linear_110_2)"/>
<circle cx="1517.77" cy="308.773" r="66.7728" fill="#DBDEEA"/>
<path d="M1531.39 284.787L1520.37 286.083L1517.12 279.601L1518.42 269.876L1511.94 268.58L1508.05 282.842H1498.97L1491.19 286.083H1480.17L1482.77 276.359L1470.45 274.414L1468.5 266.635L1477.58 257.559L1491.19 249.132L1508.05 245.242L1505.46 256.263H1515.83L1522.96 254.318L1527.5 245.242L1537.87 254.318L1541.11 263.394L1533.98 264.69L1541.11 269.876L1543.7 266.635L1553.43 264.69L1543.7 256.263L1542.41 249.132L1553.43 254.318L1561.21 261.449V272.47L1567.69 276.359V286.083L1572.23 292.566L1581.95 293.863L1583.9 303.587L1583.25 313.959L1569.63 315.256L1573.52 317.849L1572.23 324.332L1566.39 322.387L1561.21 324.332L1555.37 319.794L1559.26 313.959L1556.67 306.18L1559.26 295.159L1553.43 293.863L1550.19 304.235H1545.65L1539.17 307.477H1533.98V300.994L1531.39 297.752V284.787Z" fill="#BCC6D7"/>
<path d="M1455.54 332.111V313.959L1464.61 310.07L1472.39 307.477L1477.58 291.27L1487.3 300.994L1484.06 311.366L1479.52 313.311V320.442L1491.19 315.256L1491.84 304.884L1503.51 302.29L1510.64 313.311L1525.55 313.959L1533.98 315.256L1527.5 322.387L1515.83 325.629L1511.94 334.704L1522.96 332.111L1532.68 329.518L1535.92 333.408L1524.26 341.187L1525.55 350.911L1537.87 352.208L1541.11 348.318L1545.65 344.429L1555.37 341.187L1563.8 352.208L1555.37 360.636L1541.11 367.118L1525.55 371.656H1513.23L1509.99 367.118L1505.46 363.877L1500.92 365.174L1491.19 367.118L1482.77 362.58L1472.39 354.801L1462.67 344.429L1455.54 332.111Z" fill="#BCC6D7"/>
<circle cx="405.733" cy="243.774" r="2.11977" fill="#C4C4C4"/>
<circle cx="106.845" cy="235.295" r="2.11977" fill="#C4C4C4"/>
<circle cx="1777.23" cy="1140.44" r="2.11977" fill="#C4C4C4"/>
<circle cx="83.528" cy="852.148" r="2.11977" fill="#C4C4C4"/>
<circle cx="1652.16" cy="470.589" r="2.11977" fill="#C4C4C4"/>
<circle cx="1647.92" cy="129.306" r="2.11977" fill="#C4C4C4"/>
<circle cx="1404.15" cy="248.013" r="2.11977" fill="#C4C4C4"/>
<circle cx="284.906" cy="129.306" r="2.11977" fill="#C4C4C4"/>
<circle cx="467.207" cy="339.163" r="4.23954" fill="#C4C4C4"/>
<circle cx="1043.78" cy="279.81" r="4.23954" fill="#C4C4C4"/>
<circle cx="1554.65" cy="570.219" r="4.23954" fill="#C4C4C4"/>
<circle cx="181.037" cy="786.435" r="4.23954" fill="#C4C4C4"/>
<circle cx="323.062" cy="519.344" r="4.23954" fill="#C4C4C4"/>
<circle cx="1075.58" cy="135.665" r="4.23954" fill="#C4C4C4"/>
<circle cx="1770.87" cy="919.981" r="4.23954" fill="#C4C4C4"/>
<circle cx="1083" cy="189.72" r="3.17966" fill="#C4C4C4"/>
<circle cx="101.546" cy="1016.43" r="3.17966" fill="#C4C4C4"/>
<circle cx="1326.77" cy="365.661" r="3.17966" fill="#C4C4C4"/>
<circle cx="1754.97" cy="679.387" r="3.17966" fill="#C4C4C4"/>
<circle cx="745.957" cy="236.354" r="5.29943" fill="#C4C4C4"/>
<circle cx="505.363" cy="112.348" r="6.35932" fill="#C4C4C4"/>
<circle cx="92.007" cy="426.074" r="6.35932" fill="#C4C4C4"/>
<circle cx="312.463" cy="290.409" r="6.35932" fill="#C4C4C4"/>
<circle cx="757.615" cy="125.066" r="6.35932" fill="#C4C4C4"/>
<circle cx="140.762" cy="621.093" r="6.35932" fill="#C4C4C4"/>
<circle cx="1783.59" cy="438.793" r="6.35932" fill="#C4C4C4"/>
<circle cx="1499.54" cy="349.762" r="6.35932" fill="#C4C4C4"/>
<circle cx="1251.52" cy="112.348" r="6.35932" fill="#C4C4C4"/>
<circle cx="1825.98" cy="580.818" r="6.35932" fill="#C4C4C4"/>
<circle cx="1620.36" cy="252.253" r="6.35932" fill="#C4C4C4"/>
<circle cx="1200.65" cy="228.935" r="6.35932" fill="#C4C4C4"/>
<circle cx="1457.14" cy="105.989" r="6.35932" fill="#C4C4C4"/>
<circle cx="1751.79" cy="231.055" r="6.35932" fill="#C4C4C4"/>
<circle cx="927.197" cy="180.181" r="6.35932" fill="#C4C4C4"/>
<circle cx="1789.94" cy="72.0722" r="6.35932" fill="#C4C4C4"/>
<circle cx="128.043" cy="112.348" r="6.35932" fill="#C4C4C4"/>
<defs>
<linearGradient id="paint0_linear_110_2" x1="927.172" y1="0" x2="927.172" y2="2271.01" gradientUnits="userSpaceOnUse">
<stop stop-color="#131E33"/>
<stop offset="0.5625" stop-color="#446276"/>
<stop offset="0.916667" stop-color="#B99298"/>
</linearGradient>
</defs>
</svg>
