<svg width="22" height="16" viewBox="0 0 22 16" fill="none" xmlns="http://www.w3.org/2000/svg">
<path d="M4.66531 3C2.26531 3 3.1653 11.5 3.16531 16H11.6653C11.6653 8.5 12.1653 3 8.66529 3C7.77086 3 8 0.5 8 0.5H6C6 0.5 6.5 3 4.66531 3Z" fill="#E0B930"/>
<rect x="3.66528" y="8" width="7" height="8" fill="#EC7837"/>
<rect x="5.66528" width="3" height="2" fill="#EC7837"/>
<path d="M8.66531 3C6.26531 3 7.1653 11.5 7.16531 16H15.6653C15.6653 8.5 16.1653 3 12.6653 3C11.7709 3 12.6653 0.5 12.6653 0.5H10C10 0.5 10.6696 3 8.66531 3Z" fill="#AEE9F7"/>
<rect x="7.66528" y="8" width="7" height="8" fill="white"/>
<rect x="9.66528" width="3" height="2" fill="#196CB9"/>
<path d="M1.66531 3C-0.734689 3 0.165299 11.5 0.165311 16H8.66529C8.66529 8.5 9.16528 3 5.66529 3C4.77086 3 5 0.5 5 0.5H3C3 0.5 3.5 3 1.66531 3Z" fill="#5B0F00"/>
<rect x="0.665283" y="8" width="7" height="8" fill="#F71D1D"/>
<rect x="2.66528" width="3" height="2" fill="#F71D1D"/>
<path d="M14.6653 3C12.2653 3 13.1653 11.5 13.1653 16H21.6653C21.6653 8.5 22.1653 3 18.6653 3C17.7709 3 18 0.5 18 0.5H16C16 0.5 16.5 3 14.6653 3Z" fill="#E0B930"/>
<rect x="13.6653" y="8" width="7" height="8" fill="#EC7837"/>
<rect x="15.6653" width="3" height="2" fill="#EC7837"/>
</svg>
