<svg width="143" height="36" viewBox="0 0 143 36" fill="none" xmlns="http://www.w3.org/2000/svg">
<path d="M21.7242 15.5172V35.3793H24.2069V15.5172H21.7242Z" fill="black"/>
<path d="M117.31 16.1379V36H119.793V16.1379H117.31Z" fill="black"/>
<path d="M40.3448 17.3793C21.9724 14.8965 5.7931 16.3448 0 17.3793L5.58621 0H135.931L142.138 15.5172C141.103 16.1379 137.545 17.5034 131.586 18C124.138 18.6207 101.793 14.2759 93.7241 17.3793C85.6552 20.4827 63.3103 20.4827 40.3448 17.3793Z" fill="#BE9D27"/>
<path d="M97.4483 11.7931C75.1034 14.7724 24.8276 11.7931 2.48276 9.93104L5.58621 0H135.931C130.966 6.82759 125.379 8.06897 97.4483 11.7931Z" fill="#DFB931"/>
</svg>
