<svg width="29" height="10" viewBox="0 0 29 10" fill="none" xmlns="http://www.w3.org/2000/svg">
<path d="M6.5 5.50003C2.5 3.90003 0.5 7.16669 0 9.00003H9.5C10.1667 8.50003 10.5 7.10003 6.5 5.50003Z" fill="#BB7806"/>
<path d="M7 8.99999C6.66667 8.33332 5.5 6.89999 3.5 6.49999C1.5 6.09999 0.333333 7.99999 0 8.99999H7Z" fill="#F6E193"/>
<path d="M2.5 3.49997C2.5 4.29997 6.16667 6.16664 8 6.99997L9 6.49997C6.83333 5.16664 2.5 2.69997 2.5 3.49997Z" fill="#C6C7CC"/>
<path d="M8.50001 7.50001C7.70001 7.10001 8.16668 6.66667 8.50001 6.50001C8.94139 6.00001 10.5 6.00001 12.5 8.00001C14.1 9.60001 12.1667 9.00001 11 8.50001C10.5 8.33334 9.30001 7.90001 8.50001 7.50001Z" fill="#BA1124"/>
<path d="M26.5 6.49994C26.1 6.89994 24.6667 6.33327 24 5.99994L23.5 7.99994C24.1667 7.99994 25.8 8.19994 27 8.99994C28.5 9.99994 28.5 8.49994 28.5 6.99994C28.5 5.49994 27 5.99994 26.5 6.49994Z" fill="#D9B386"/>
<path d="M22.5 3.49993C16.9 -1.30007 14.1667 0.833259 13.5 2.49993C14 4.49993 13.9 8.59994 15.5 8.99994C17.5 9.49994 29.5 9.49993 22.5 3.49993Z" fill="#C9833D"/>
<path d="M12.8191 8.93695C11.3357 8.93695 12.201 5.91333 12.8191 4.40151C12.8191 2.70073 14.0553 0.999939 16.5276 0.999939C19 0.999939 19.6181 4.96844 18.3819 7.23616C17.1457 9.50388 14.6733 8.93695 12.8191 8.93695Z" fill="#F6FBFF"/>
<path d="M13.5 8.49994C12.3 8.49994 13 5.83327 13.5 4.49994C13.5 2.99994 14.5 1.49994 16.5 1.49994C18.5 1.49994 19 4.99994 18 6.99994C17 8.99994 15 8.49994 13.5 8.49994Z" fill="#991B29"/>
<ellipse cx="15.6138" cy="4.95776" rx="0.601998" ry="0.934292" transform="rotate(12.4604 15.6138 4.95776)" fill="#DEB57F"/>
</svg>
