<svg width="1859" height="1153" viewBox="0 0 1859 1153" fill="none" xmlns="http://www.w3.org/2000/svg">
<path d="M-126.731 809.846L-183.711 1035.95L1854 1153L1861.5 450.5L1713 416.834L1427.5 350.5L1272 374.5L1191.73 407.165L1104.4 416.834L971.469 466.347L873.961 534.618L773.642 509.338L623.492 531.574L481.415 635.582L68.5436 694.286L-10.5418 748.631L-126.731 809.846Z" fill="#709CA6"/>
<path d="M63.9998 706.5L210.5 722.915L128.82 687.339L63.9998 706.5Z" fill="#577D89"/>
<path d="M404.449 722.915L602.047 711.501L808.221 743.784L692.622 644.699L722.461 631.451L778.703 636.88L711.27 570.7L760.395 517.499L625.798 534.952L492.832 628.234L484.285 662.15L352.821 694.602L404.449 722.915Z" fill="#577D89"/>
<path d="M917.473 680.595L884.326 537.8L969.791 472.989L1047.53 443.394L1000.25 567.013L1086.64 612.831L997.287 642.778L1070.06 678.607L1277.6 636.907L1410.83 643.157L1524.66 653.26L1594.94 657.854L1567.83 623.697L1639.66 622.124L1613.07 585.911L1479.81 552.33L1394.81 510.142L1495.47 526.765L1617.99 566.384L1532.75 502.276L1420.08 473.882L1350.29 490.18L1220.29 457.417L1181.73 413.817L1267.89 373C1296.5 364 1358.34 345 1390.55 347C1422.76 349 1619.4 399.409 1713.69 424.363L1780.77 533.082L1665.3 520.377L1682.4 603.385L1851.5 687.339L1594.94 657.854L1524.66 653.26L1410.83 643.157L1277.6 636.907L1070.06 678.607L917.473 680.595Z" fill="#577D89"/>
<path d="M1277.48 550.527L1239.58 568.303L1267.89 588.554L1551.98 631.726L1538.9 596.733L1454.4 575.438L1390.55 591.045L1277.48 550.527Z" fill="#577D89"/>
<path d="M-26.7004 692.386C-26.7004 692.386 618.77 816.761 927.197 692.386C1235.62 568.012 1881.09 692.386 1881.09 692.386V1173.41H-26.7004V692.386Z" fill="url(#paint0_linear_102_287)"/>
<path fill-rule="evenodd" clip-rule="evenodd" d="M66.3384 707.976L121.876 745.057L452.229 745.899C300.152 740.162 156.009 721.63 66.3384 707.976ZM1859 688.374C1743.26 668.049 1201.72 581.685 927.198 692.388C820.642 735.357 673.857 748.636 527.359 747.611L657.164 805.334L803.323 806.331L903.422 778.788L995.057 817.267L1122.64 839.111L1207.85 837.397L1341.47 898.041L1486.5 931L1859 881.5L1859 688.374Z" fill="#24504B" fill-opacity="0.8"/>
<defs>
<linearGradient id="paint0_linear_102_287" x1="927.197" y1="692.386" x2="927.197" y2="1173.41" gradientUnits="userSpaceOnUse">
<stop stop-color="#336F67"/>
<stop offset="0.65625" stop-color="#326D66"/>
<stop offset="1" stop-color="#204944"/>
</linearGradient>
</defs>
</svg>
