<svg width="204" height="301" viewBox="0 0 204 301" fill="none" xmlns="http://www.w3.org/2000/svg">
<path d="M37.5967 198.716C36.35 196.894 34.0293 192.774 34.7208 190.871C32.3419 190.007 25.55 182.729 24.5167 183.759C23.8627 184.411 23.2228 185.101 23.5305 186.725C22.0967 187.54 18.7436 189.326 16.8021 189.951C14.3753 190.732 12.5031 193.915 15.3986 195.892C17.7149 197.474 22.376 196.373 24.417 195.625L25.9685 192.017C27.6313 194.984 28.4646 196.687 28.6869 197.207L37.5967 198.716Z" fill="#244F4A"/>
<path d="M54.2544 310.471C54.8003 311.487 55.1881 319.245 54.8052 322.642C54.3437 324.837 52.107 328.297 50.9207 327.43C49.438 326.346 46.4857 315.924 44.1168 308.87C41.7479 301.815 41.933 299.36 40.2625 293.027C38.926 287.96 40.6927 282.161 41.7431 279.895L46.6059 285.166C46.9926 287.701 47.7259 293.373 47.565 295.776C47.3639 298.78 53.5721 309.202 54.2544 310.471Z" fill="#244F4A"/>
<path d="M76.7855 340.848C75.9438 338.552 72.0385 336.583 70.1911 335.885C69.6299 334.354 69.044 330.684 71.1897 328.248C73.8719 325.202 85.859 328.297 84.8958 329.518C84.1253 330.495 85.1846 334.549 85.8106 336.454L84.3817 339.365C82.2004 340.816 77.6272 343.144 76.7855 340.848Z" fill="#244F4A"/>
<path d="M76.7133 283.127C77.0218 283.968 77.7066 284.751 78.0105 285.038L67.3164 288.415L61.6189 287.521C66.8783 285.593 76.4048 282.285 76.7133 283.127Z" fill="#244F4A"/>
<path d="M57.6107 288.838C53.9421 289.488 49.0109 292.714 47.0039 294.245C47.3971 294.825 48.426 296.112 49.3954 296.624C50.6072 297.266 52.1279 302.894 52.5488 304.042C52.9696 305.19 54.5861 310.784 53.6325 312.327C52.8696 313.562 53.5799 318.894 54.0304 321.406C53.7795 322.005 52.9996 323.39 51.8873 324.145C50.4968 325.089 51.297 328.16 51.7179 329.308C52.1387 330.456 52.5405 330.96 53.2102 330.715C53.8799 330.469 54.626 332.8 56.249 334.267C57.8721 335.734 62.4355 336.341 63.7749 335.85C65.1143 335.359 69.7669 336.8 70.0348 336.051C70.3027 335.302 71.9516 333.286 73.5334 332.272C74.7988 331.461 81.1551 330.564 84.1751 330.216C84.4122 329.876 85.5815 328.724 88.3624 326.836C91.8386 324.477 93.2293 320.277 93.8131 317.133C94.2801 314.617 83.3819 295.091 78.4003 285.449L77.6424 284.034C72.136 285.69 61.2794 288.187 57.6107 288.838Z" fill="#234F49"/>
<path d="M30.3644 196.158C27.7878 196.234 16.8136 194.324 11.6486 193.36C10.3751 193.537 7.99653 194.351 8.66991 196.188C9.51164 198.484 9.14804 199.269 9.23727 200.104C9.3265 200.94 6.55203 201.957 5.37844 202.604C4.20486 203.251 5.86922 207.199 6.36333 209.732C6.85745 212.264 7.92892 212.522 8.48697 212.86C9.04501 213.198 15.2305 228.295 18.3586 232.683C21.4867 237.072 33.8482 266.944 35.863 275.104C37.8779 283.265 46.9944 293.923 47.4918 294.392C47.9893 294.861 56.3893 291.13 58.9533 289.539C61.0046 288.266 71.7608 285.061 77.4181 283.421C76.9026 282.706 77.5172 279.294 77.1349 272.884C76.8654 268.366 63.8584 237.492 61.9581 233.197C60.0578 228.901 57.6789 228.037 56.7732 227.935C55.8676 227.832 44.1813 209.868 43.6807 208.207C43.1802 206.545 44.1082 205.228 42.9284 203.49C41.7486 201.752 33.5853 196.062 30.3644 196.158Z" fill="#234F49"/>
<path d="M67.9078 221.334C66.3025 218.293 64.293 203.281 63.4889 196.155C63.112 196.31 62.0623 196.544 60.8784 196.238C59.3985 195.856 59.3819 196.083 58.567 194.105C57.7521 192.126 62.4132 188.994 65.8993 187.558C69.3854 186.123 68.2275 193.212 72.2851 201.459C75.5312 208.056 79.4952 219.501 81.0714 224.398C82.1967 227.131 84.4305 230.949 85.2621 234.574C85.9274 237.474 91.8919 250.137 94.791 256.106C93.5233 250.53 90.3127 238.489 87.6122 234.929C84.2365 230.478 85.7879 223.007 82.7615 219.404C79.7351 215.802 77.6006 205 74.8454 196.437C74.4172 195.106 74.0509 193.925 73.7719 192.912C73.108 192.855 71.4931 192.418 70.3446 191.128C68.909 189.515 72.4005 184.881 71.9847 183.069C71.5689 181.256 78.3418 181.112 77.5715 183.523C76.9553 185.452 79.643 191.229 81.0639 193.876C90.2317 202.222 95.3043 220.961 96.2689 224.641C97.2335 228.321 106.318 241.551 110.276 247.414C114.234 253.278 114.928 271.286 101.709 277.721C88.4909 284.157 80.165 265.546 78.9621 262.625C77.7592 259.704 75.3084 243.853 75.552 239.895C75.7957 235.938 69.9144 225.136 67.9078 221.334Z" fill="#234F4A"/>
<path d="M125.721 296.154C124.053 294.46 107.405 301.897 99.289 305.827C98.7384 305.026 96.9754 302.725 94.3281 299.936C91.0191 296.45 87.1506 299.366 84.1244 299.51C81.0982 299.654 73.8047 306.294 66.8325 309.166C59.8602 312.037 60.2872 314.947 61.1686 317.89C62.05 320.833 66.6889 317.38 67.9525 316.97C69.2162 316.559 64.2393 320.262 65.9852 320.755C67.7311 321.248 71.9042 314.791 72.5748 313.744C73.2453 312.696 87.9326 307.419 88.6863 307.108C89.4401 306.798 95.4929 314.003 99.1847 321.629C102.876 329.255 108.607 325.242 113.762 324.111C117.885 323.206 118.174 329.384 117.803 332.585L130.118 328.505C128.133 326.274 124.665 321.472 126.664 320.12C129.164 318.429 135.997 311.207 138.818 307.621L129.318 300.072C128.813 299.472 127.388 297.848 125.721 296.154Z" fill="#234F4A"/>
<path d="M88.0184 258.124C84.7417 258.944 79.511 263.244 77.3052 265.291C77.4475 265.637 78.0791 266.581 79.467 267.597C81.2018 268.866 81.1355 271.648 82.9204 275.982C84.3484 279.449 89.8049 286.812 92.3546 290.059C93.9215 294.043 96.9443 302.477 97.3049 304.22C97.5783 305.542 98.4792 306.452 98.4792 306.452C98.4792 306.452 100.598 306.17 102.709 305.301C105.362 304.208 111.006 300.561 115.362 299.098C118.847 297.927 122.685 297.882 124.169 298.005C124.998 297.701 126.583 296.857 126.286 295.921C125.915 294.752 122.517 288.107 121.702 286.128L119.568 280.946C119.418 279.244 119.21 275.208 119.578 272.677C120.038 269.512 115.858 258.56 114.944 254.198C114.029 249.836 114.661 252.441 107.927 252.68C102.539 252.871 97.7047 256.045 95.9608 257.608C94.6786 257.438 91.2951 257.303 88.0184 258.124Z" fill="#234F49"/>
<path d="M136.101 186.532C138.41 193.137 143.977 215.151 143.187 218.87C142.396 222.59 141.177 226.859 142.343 230C142.88 231.449 146.401 239.101 149.406 246.471C149.36 246.421 149.314 246.372 149.267 246.325C145.222 242.24 139.667 230.52 140 227.252C140.333 223.985 133.508 210.638 131.7 206.525C129.892 202.412 122.945 181.719 122.828 175.732C122.735 170.943 119.433 174.915 116.183 176.581C118.234 187.91 123.64 219.874 124.121 227.252C124.722 236.475 138.538 251.612 142.343 259.676C145.386 266.127 151.951 265.788 153.807 259.676C154.574 264.132 161.207 292.754 167.322 291.368C181.278 286.077 175.103 250.87 172.642 245.43C169.566 238.629 157.672 229.478 157.236 224.009C156.8 218.54 156.802 211.356 155.493 207.73C154.184 204.103 145.648 188.038 142.604 183.341C139.559 178.643 140.87 170.173 136.489 172.263C131.828 174.487 134.171 185.202 136.101 186.532Z" fill="#234F4A"/>
<path d="M187.237 283.574C185.334 277.461 180.185 269.992 177.848 267.022L177.398 277.084C178.214 279.976 179.972 286.104 180.473 287.477C180.973 288.85 187.908 298.093 191.313 302.543L168.594 309.265C166.101 303.873 161.613 294.393 159.957 291.645L153.807 302.021C154.29 303.652 158.381 315.35 160.366 320.994C160.739 321.588 162.089 323.062 164.508 324.206C166.927 325.349 168.919 324.731 169.612 324.28C170.432 324.918 171.785 326.51 170.647 327.776C169.509 329.043 169.36 331.15 169.428 332.045L183.848 327.251C185.19 323.931 188.31 317.163 190.049 316.649C192.223 316.006 192.128 313.287 192.972 311.348C193.817 309.408 194.49 303.293 193.158 299.99L193.139 299.942C191.805 296.634 189.605 291.178 187.237 283.574Z" fill="#234F4A"/>
<path d="M147.328 302.537L144.597 297.68C143.997 287.051 142.87 265.603 143.162 264.841C143.454 264.08 149.374 262.079 152.298 261.174C153.372 262.182 155.873 263.901 157.281 262.713C159.042 261.228 173.276 257.739 175.364 257.362C177.452 256.986 178.148 261.962 179.862 266.879C181.233 270.812 180.934 287.412 180.614 295.22C180.361 295.094 178.412 295.124 172.639 296.254C166.866 297.383 159.488 301.51 156.52 303.433L147.328 302.537Z" fill="#234F49"/>
<path d="M177.136 327.464C179.108 329.853 183.162 335.009 183.608 336.517C182.976 338.014 181.429 341.227 180.294 342.092C179.409 343.016 176.746 343.804 176.927 344.414C176.927 344.414 181.007 342.544 181.712 341.01C182.18 339.991 183.25 338.123 183.97 336.904C184.565 336.585 185.62 333.098 188.442 332.555C191.233 332.019 193.681 332.813 194.556 333.277L195.212 319.826C191.079 313.456 182.723 300.405 182.355 299.164C181.896 297.612 183.4 293.793 180.073 294.657C176.747 295.52 164.566 297.798 162.481 301.79C162.481 301.79 165.497 304.151 168.86 311.955C170.672 316.161 171.439 318.061 171.538 318.514L177.136 327.464Z" fill="#234F49"/>
<path d="M119.046 301.617C121.601 301.749 129.446 307.875 133.05 310.922C132.861 315.673 131.922 324.75 129.672 323.04C126.859 320.902 119.513 310.858 119.447 312.503C119.395 313.819 111.949 322.047 108.232 325.996C106.444 328.576 101.987 333.141 98.4612 330.759C94.0534 327.782 99.2979 327.327 102.198 323.92C105.098 320.512 115.852 301.453 119.046 301.617Z" fill="#244F4A"/>
<path d="M181.643 293.684C180.434 292.47 170.088 300.63 165.066 304.863L167.472 317.74C171.55 312.473 179.795 302.189 180.149 303.188C180.592 304.437 183.439 306.67 186.39 311.029C189.342 315.388 186.917 314.951 187.969 319.443C189.022 323.935 191.454 321.342 193.926 319.168C196.399 316.994 191.374 313.802 190.52 309.564C189.665 305.327 183.155 295.202 181.643 293.684Z" fill="#244F4A"/>
<path fill-rule="evenodd" clip-rule="evenodd" d="M102.395 187.621C98.3015 188.172 90.8653 188.402 93.8668 184.916C97.6187 180.558 106.274 174.784 107.888 179.942C108.134 180.728 108.365 181.58 108.597 182.502C110.606 179.951 114.929 176.017 116.153 180.686C116.751 182.971 116.765 184.634 116.777 186.002C116.795 188.129 116.807 189.541 119.001 191.461C122.607 194.615 132.177 213.06 131.975 217.672C131.773 222.285 132.41 238.709 133.336 241.624C134.262 244.54 117.294 258.884 114.271 249.144C112.728 244.17 111.359 237.78 110.122 232.006C108.937 226.474 107.873 221.508 106.893 218.893C105.29 214.618 103.226 196.264 102.395 187.621ZM117.89 219.987C117.87 221.806 117.853 223.276 118.416 224.861C119.642 228.318 122.736 235.618 124.13 238.836C123.206 234.911 121.596 226.328 122.545 223.396C123.137 221.569 121.566 218.116 119.793 214.219C118.01 210.301 116.024 205.934 115.825 202.318C115.508 196.549 112.311 192.681 110.752 191.468C111.736 195.292 113.057 199.792 115.072 205.072C117.973 212.67 117.926 216.848 117.89 219.987Z" fill="#244F4A"/>
<path d="M143.252 328.71L155.656 326.797L150.704 315.579L143.876 319.191L143.252 328.71Z" fill="#244F4A"/>
<path d="M108.418 232.948C109.226 234.737 103.133 236.336 99.9858 236.912C106.888 252.916 120.94 285.377 121.928 287.188C123.164 289.453 132.623 308.802 133.304 310.723C133.985 312.644 129.366 315.472 128.787 317.191C128.207 318.91 125.06 319.486 124.322 321.369C123.585 323.253 130.158 326.543 133.045 329.195C135.354 331.317 140.707 329.865 143.094 328.874C143.756 325.864 145.777 319.489 148.56 318.07C152.039 316.295 155.522 328.249 155.82 326.955C156.117 325.66 159.534 324.015 162.738 322.987C165.941 321.959 168.801 318.134 170.771 316.678C172.741 315.222 169.334 308.97 167.228 306.69C165.543 304.866 160.161 303.431 157.681 302.941C154.589 297.983 148.635 287.618 149.554 285.822C150.704 283.576 147.954 271.253 148.894 264.757C149.833 258.261 138.941 233.041 138.566 231.985C138.191 230.928 137.566 228.555 136.333 228.128C135.1 227.7 135.565 225.048 134.732 223.614C133.899 222.18 129.812 225.9 126.953 226.373C124.094 226.847 123.898 228.43 123.273 229.409C122.647 230.388 121.767 228.213 120.921 229.486C120.075 230.759 117.371 229.232 115.946 228.872C114.521 228.513 111.011 232.028 110.073 231.821C109.134 231.613 107.409 230.711 108.418 232.948Z" fill="#234F49"/>
<path d="M60.7252 290.433C58.7687 292.878 58.6193 303.272 58.7891 308.163C58.8397 311.933 68.3675 314.073 69.3864 313.767C70.4054 313.462 70.9149 291.554 71.2206 290.433C71.5263 289.312 88.1355 287.783 90.9887 287.783C93.8418 287.783 100.363 291.656 103.013 291.554C105.662 291.452 104.439 288.191 104.235 283.3C104.032 278.409 96.1854 281.466 94.5551 281.873C92.9247 282.281 78.761 280.243 72.0358 280.447C65.3105 280.651 63.1707 287.376 60.7252 290.433Z" fill="#244F4A"/>
<path d="M138.84 303.455C140.572 303.761 139.655 308.856 139.655 310.995L147.603 302.742C146.181 296.628 145.667 296.628 137.107 294.08C128.548 291.533 121.925 290.922 114.69 291.941C108.902 292.756 112.754 297.103 115.403 299.175C117.645 299.583 121.008 297.545 123.148 296.628C125.287 295.711 137.107 303.149 138.84 303.455Z" fill="#234F4A"/>
<path d="M120.81 284.477C118.12 282.765 109.227 292.731 105.117 297.928L111.027 308.525C115.001 306.283 119.383 290.285 120.81 294.056C122.236 297.826 131.815 299.048 132.528 303.838C133.241 308.627 136.298 310.665 137.623 310.767C138.947 310.869 138.54 307.302 138.438 303.838C138.336 300.373 124.172 286.617 120.81 284.477Z" fill="#234F4A"/>
<path d="M33.2187 180.714C32.6752 182.854 31.9144 187.521 33.2187 189.069C34.849 191.005 42.5932 193.145 40.6572 194.776C38.7211 196.406 27.4105 199.87 26.0859 199.259C25.2475 198.872 24.4092 198.444 24.1391 196.814C22.5123 196.542 18.7492 196.019 16.7113 196.1C14.1639 196.202 11.3107 193.859 13.3487 191.005C14.979 188.723 19.7343 188.152 21.9081 188.152L24.6065 191.005C25.1467 187.648 25.3428 185.762 25.3726 185.197L33.2187 180.714Z" fill="#DD9A7D"/>
<path d="M10.3937 70.0533C10.5567 68.9121 8.25039 61.494 6.72193 58.437C5.53313 56.535 2.24188 54.0555 1.42671 55.2782C0.407734 56.8067 1.22291 67.6078 1.42671 75.0463C1.6305 82.4848 2.64947 84.7265 3.26086 91.248C3.74996 96.4651 7.40468 101.302 9.1709 103.068L11.9221 96.4447C11.4126 93.9313 10.1491 88.3541 9.1709 86.1531C7.94813 83.4019 10.1899 71.4799 10.3937 70.0533Z" fill="#DD9A7D"/>
<path d="M21.0929 33.7779C21.0929 36.2234 18.1039 39.4162 16.6094 40.7069C16.6094 42.3373 17.3227 45.9852 20.1758 47.534C23.7422 49.4701 33.9319 42.4392 32.6073 41.624C31.5475 40.9719 31.1467 36.8009 31.0788 34.7969L28.7352 32.5551C26.1877 31.9438 21.0929 31.3324 21.0929 33.7779Z" fill="#DD9A7D"/>
<path d="M40.892 87.9971C40.892 87.1008 41.2655 86.1299 41.4522 85.7564L30.2489 86.2657L25.2074 89.0665C30.8091 89.0665 40.892 88.8934 40.892 87.9971Z" fill="#DD9A7D"/>
<path d="M20.9909 89.21C17.3226 89.8622 11.5824 88.5307 9.17086 87.7835C9.34069 87.1041 9.86376 85.5417 10.5974 84.7265C11.5145 83.7076 11.005 77.8994 11.005 76.6767C11.005 75.4539 10.5974 69.6457 9.17086 68.5249C8.02961 67.6282 6.86119 62.3771 6.41963 59.8636C5.97808 59.3881 4.7689 58.3555 3.46461 58.0295C1.83426 57.6219 1.52856 54.463 1.52856 53.2403C1.52856 52.0175 1.73236 51.4061 2.44564 51.4061C3.15892 51.4061 3.05702 48.9606 4.076 47.0245C5.09497 45.0885 9.17086 42.9487 10.5974 42.9487C12.024 42.9487 15.8961 39.9936 16.4056 40.605C16.9151 41.2164 19.1568 42.5411 20.9909 42.9487C22.4583 43.2747 28.7351 41.9297 31.6902 41.2164C32.0298 41.4542 33.5243 42.1335 36.785 42.9487C40.8609 43.9676 43.6121 47.4321 45.2425 50.1834C46.5468 52.3843 43.0353 74.4689 41.6766 85.236L41.4522 86.8258C35.712 87.1655 24.6592 88.5579 20.9909 89.21Z" fill="white"/>
<path d="M27.3087 185.605C24.8631 186.42 15.2169 191.99 10.6994 194.674C9.44269 194.945 6.92923 195 6.92923 193.043C6.92923 190.598 6.31784 189.986 6.11405 189.171C5.91025 188.356 2.95523 188.356 1.63057 188.152C0.305903 187.948 0.5097 183.669 0.102111 181.121C-0.305478 178.574 0.611597 177.962 1.01919 177.453C1.42678 176.943 2.03816 160.64 3.46472 155.443C4.89128 150.246 6.21595 117.945 5.29887 109.589C4.3818 101.234 9.27287 88.089 9.57856 87.4776C9.88425 86.8662 19.055 87.4776 22.01 88.089C24.374 88.5781 35.5762 87.8852 41.4523 87.4776C41.2145 88.3268 42.966 91.319 44.8133 97.4688C46.1151 101.803 44.5293 135.267 44.2236 139.955C43.9179 144.642 41.9819 146.272 41.1667 146.68C40.3515 147.088 35.5624 167.976 35.6643 169.709C35.7662 171.441 37.0908 172.358 36.5813 174.396C36.0718 176.434 30.3656 184.586 27.3087 185.605Z" fill="white"/>
<path d="M17.3227 40.7069C15.9369 40.9514 12.9411 41.8957 11.6165 42.3372C12.2958 40.4691 13.5525 36.4272 13.1449 35.2044C12.6354 33.676 13.1449 32.1475 13.1449 31.1285C13.1449 30.1096 14.5715 22.6711 14.6734 21.0407C14.7753 19.4103 17.3227 16.4553 17.9341 15.2326C18.5455 14.0098 23.5384 10.9529 28.3276 11.8699C33.1168 12.787 35.5623 21.2445 36.6832 24.8109C37.8041 28.3773 37.3965 30.8228 36.2756 32.1475C35.1547 33.4722 34.849 36.0196 33.0149 37.4462C31.1807 38.8727 27.7162 38.9746 25.2707 38.9746C22.8252 38.9746 19.055 40.4012 17.3227 40.7069Z" fill="#791500"/>
<path d="M54.3115 163.595C53.9854 167.019 57.8439 181.665 59.8139 188.56C59.4063 188.56 58.3466 188.743 57.3684 189.477C56.1456 190.394 56.0437 190.19 56.0437 192.33C56.0437 194.47 61.5462 195.591 65.3164 195.591C69.0866 195.591 65.3164 189.477 65.9278 180.306C66.4169 172.969 65.724 160.878 65.3164 155.749C65.3164 152.794 65.9278 148.412 65.3164 144.744C64.8273 141.809 65.5202 127.829 65.9278 121.206C66.8788 126.844 68.4956 139.201 67.3543 143.521C65.9278 148.922 70.2074 155.239 68.7809 159.723C67.3543 164.206 69.4942 175.007 70.2074 183.974C70.3183 185.368 70.4292 186.599 70.5572 187.643C69.9651 187.948 68.6382 188.967 68.0676 190.598C67.3543 192.636 72.3473 195.591 72.653 197.425C72.9587 199.259 79.2763 196.813 77.6459 194.877C76.3417 193.328 76.627 186.963 76.9327 183.974C82.2313 172.766 79.7858 153.507 79.2763 149.737C78.7668 145.967 82.1294 130.274 83.556 123.345C84.9826 116.416 78.7668 99.5014 64.0936 98.5843C49.4204 97.6673 48.809 118.047 48.809 121.206C48.809 124.364 52.5792 139.955 54.3115 143.521C56.0437 147.087 54.7191 159.315 54.3115 163.595Z" fill="#B36C4E"/>
<path d="M79.2763 72.3967C78.3796 74.5977 60.1536 74.0611 51.1527 73.5176L45.0388 58.9463C45.5483 50.4888 52.3754 52.0173 57.5722 51.1002C61.7296 50.3666 59.6441 44.5448 58.0817 41.7257L71.0226 40.8086C70.0376 43.6278 68.6586 49.3883 71.0226 49.8775C73.9776 50.4888 83.0465 54.5647 87.0205 56.8065L81.1105 67.4038C80.8727 68.151 80.173 70.1958 79.2763 72.3967Z" fill="#B36C4E"/>
<path d="M58.897 121.919C55.5547 122.408 49.0809 120.424 46.2617 119.371C46.2617 118.998 46.4859 117.884 47.3826 116.416C48.5035 114.582 47.3826 112.035 47.3826 107.347C47.3826 103.598 49.6243 94.7122 50.7452 90.7382C50.6773 86.4585 50.2605 77.5087 49.93 75.7593C49.6795 74.4331 50.166 73.2487 50.166 73.2487C50.166 73.2487 52.2321 72.7024 54.5154 72.7024C57.3849 72.7024 63.9918 73.9251 68.5772 73.6195C72.2455 73.3749 75.8119 71.9551 77.1366 71.2758C78.0197 71.2418 79.8063 71.4185 79.8878 72.3967C79.9897 73.6195 79.3783 81.058 79.3783 83.1978V88.8021C79.8878 90.4325 81.2329 94.2435 82.5371 96.4444C84.1675 99.1957 84.4732 110.914 85.2884 115.295C86.1036 119.677 85.696 117.028 79.3783 119.371C74.3242 121.246 68.6452 120.153 66.4374 119.371C65.3165 120.017 62.2392 121.43 58.897 121.919Z" fill="white"/>
<path d="M70.8189 47.0243C71.3896 46.4537 63.7201 46.2431 59.814 46.2091C57.9799 46.1839 58.897 48.7566 57.3685 49.1642C56.1457 49.4902 52.0359 46.6507 50.1338 45.1902C50.4055 43.6277 50.949 40.2787 50.949 39.382C50.949 38.2611 56.3495 28.1733 57.3685 26.9505C58.3875 25.7278 60.5273 24.505 63.9918 23.9955C66.7634 23.5879 68.0677 24.6409 68.3734 25.2183C70.8189 24.9126 72.2455 26.6449 72.9588 28.479C73.6721 30.3132 76.2195 39.1782 76.1176 43.6617C76.0157 48.1452 73.6721 48.0433 72.2455 48.2471C70.8189 48.4509 70.1057 47.7376 70.8189 47.0243Z" fill="#B97E3A"/>
<path d="M126.455 177.045C128.595 175.109 135.483 176.658 135.728 171.033C136.033 164.002 135.218 141.177 133.588 137.815C131.957 134.452 129.817 130.682 130.021 127.319C130.18 124.703 128.36 112.689 127.354 106.532C127.141 107.106 126.715 108.089 125.945 109.691C123.5 114.786 117.284 129.867 118.405 132.924C119.526 135.981 121.462 148.616 120.952 153.099C120.443 157.583 121.156 169.301 122.583 175.109C123.724 179.756 117.556 179.559 114.329 178.879C113.208 167.365 110.6 142.523 109.132 135.267C107.298 126.199 115.348 107.653 116.571 98.7882C117.549 91.6962 124.111 100.656 127.27 106.023C126.795 101.505 124.397 61.4938 130.021 61.0862C143.403 62.2071 147.058 97.9323 146.325 103.883C145.408 111.322 143.37 123.447 144.389 128.848C145.408 134.248 147.242 141.177 147.038 145.05C146.834 148.922 143.574 166.856 142.147 172.256C140.72 177.657 144.011 185.454 139.701 184.688C135.116 183.872 125.13 178.879 126.455 177.045Z" fill="#A75F40"/>
<path d="M149.178 62.9204C149.096 69.3603 146.563 78.0351 145.306 81.5676L142.351 71.9892C142.317 68.9663 142.269 62.5535 142.351 61.0862C142.432 59.6189 146.053 48.7227 147.853 43.458H126.553C125.78 49.3715 124.328 59.7968 123.602 62.9204L115.654 54.6667C115.654 52.9548 116.197 40.503 116.469 34.491C116.639 33.8117 117.427 32.0047 119.22 30.2113C121.014 28.418 122.888 28.4451 123.602 28.6829C124.145 27.8337 124.906 25.9113 123.602 25.0146C122.297 24.1179 121.632 22.1275 121.462 21.2444L135.116 21.7539C137.12 24.573 141.536 30.2113 143.166 30.2113C145.204 30.2113 145.815 32.8607 147.038 34.491C148.261 36.1214 150.401 41.8276 150.095 45.394L150.091 45.4463C149.784 49.0181 149.279 54.9097 149.178 62.9204Z" fill="#A75F40"/>
<path d="M114.329 71.378L113.31 76.1671C115.314 85.3039 119.424 103.72 119.831 104.291C120.239 104.861 125.368 105.072 127.881 105.106C128.493 103.985 130.062 101.906 131.448 102.559C133.18 103.374 145.204 102.762 146.936 102.559C148.668 102.355 148.057 97.9732 148.261 93.3878C148.424 89.7195 144.321 75.7595 142.249 69.2381C142.079 69.4079 140.537 69.8699 135.727 70.359C130.918 70.8481 124.145 69.2042 121.36 68.321L114.329 71.378Z" fill="white"/>
<path d="M128.289 42.8465C129.512 40.3331 131.957 34.9597 131.957 33.5739C130.917 32.4655 128.502 30.1368 127.158 29.6887C126.037 29.1285 123.236 29.1285 123.236 28.5684C123.236 28.5684 127.718 29.1285 128.838 30.2489C129.583 30.9934 131.152 32.305 132.197 33.1559C132.864 33.2768 134.882 35.9609 137.765 35.7137C140.618 35.4692 142.758 34.1853 143.471 33.5739L147.955 44.7826C145.781 51.2021 141.434 64.3265 141.434 65.4677C141.434 66.8943 143.981 69.7474 140.516 69.8493C137.052 69.9512 124.62 71.0721 121.462 68.2189C121.462 68.2189 123.703 65.4677 124.722 58.0292C125.272 54.0194 125.47 52.2211 125.436 51.8135L128.289 42.8465Z" fill="white"/>
<path d="M119.22 9.42431C118.976 10.6471 118.846 15.0287 118.812 17.0666C118.745 17.1685 118.507 18.1875 118.099 21.4482C117.59 25.5241 121.869 24.0975 123.704 23.8937C125.538 23.6899 131.855 23.7918 134.912 24.8108C137.969 25.8298 140.313 24.0975 140.313 23.1804C140.313 22.2634 140.924 20.7349 141.536 19.2065C142.147 17.678 141.841 15.4363 141.536 14.9268C141.23 14.4173 137.867 9.42431 137.867 7.28447C137.867 5.5726 134.674 2.22357 133.078 0.763047C131.244 -0.663515 126.455 0.25356 124.009 0.763047C121.564 1.27253 119.526 7.89586 119.22 9.42431Z" fill="#5B0F00"/>
<path d="M77.646 68.1171C80.0101 67.1389 85.3563 58.7426 87.7339 54.6667C85.9677 50.2512 82.048 42.0111 80.4992 44.3751C78.5631 47.3301 74.9967 59.2521 74.3853 57.7236C73.8962 56.5009 64.1277 51.2362 59.3045 48.7567C56.7571 46.9225 51.0305 44.1101 48.5034 47.5339C45.3446 51.8136 50.4395 50.4889 54.3116 52.7307C58.1837 54.9724 74.691 69.3399 77.646 68.1171Z" fill="#D18665"/>
<path d="M139.294 54.6667C138.56 56.2155 126.081 51.9834 119.933 49.6737L117.895 36.7328C123.5 40.3332 134.709 47.269 134.709 46.2092C134.709 44.8846 136.645 41.8276 137.969 36.7328C139.294 31.6379 137.154 32.8607 136.645 28.2753C136.135 23.6899 139.294 25.3203 142.351 26.5431C145.408 27.7658 141.739 32.4531 142.351 36.7328C142.962 41.0125 140.211 52.7307 139.294 54.6667Z" fill="#D18665"/>
<path fill-rule="evenodd" clip-rule="evenodd" d="M100.063 181.121C96.0215 181.97 88.9362 184.239 92.9306 186.522C97.9236 189.375 108.011 191.922 107.808 186.522C107.777 185.699 107.71 184.818 107.621 183.872C110.366 185.605 115.756 187.867 115.348 183.057C115.149 180.704 114.606 179.132 114.159 177.839C113.465 175.828 113.005 174.493 114.431 171.95C116.775 167.773 119.628 147.189 117.895 142.91C116.163 138.63 111.272 122.938 111.17 119.881C111.068 116.824 90.2813 108.978 90.6889 119.168C90.8971 124.372 91.7431 130.852 92.5076 136.707C93.24 142.316 93.8976 147.353 93.8477 150.144C93.7662 154.709 97.9576 172.698 100.063 181.121ZM103.847 145.437C103.22 143.73 102.713 142.35 102.713 140.668C102.713 137 103.188 129.086 103.426 125.587C103.868 129.595 105.219 138.222 107.094 140.668C108.263 142.192 107.937 145.972 107.569 150.237C107.198 154.526 106.786 159.306 107.808 162.78C109.438 168.323 107.718 173.037 106.654 174.702C106.303 170.769 106.043 166.086 106.177 160.436C106.371 152.306 104.93 148.384 103.847 145.437Z" fill="#D18665"/>
<path d="M91.4022 34.491L103.732 32.1474L102.815 44.3751L95.1724 43.2542L91.4022 34.491Z" fill="#D18665"/>
<path d="M90.587 136.388C90.75 134.432 84.4732 134.962 81.3144 135.471C82.4692 118.081 84.8604 82.7903 85.1865 80.7524C85.5941 78.205 88.0396 56.8065 88.0396 54.7686C88.0396 52.7306 82.7409 51.6098 81.6201 50.1832C80.4992 48.7566 77.3404 49.2661 76.0157 47.7377C74.691 46.2092 79.7859 40.9106 81.6201 37.446C83.0874 34.6744 88.617 34.2533 91.1984 34.3891C92.8287 37.0045 96.8639 42.3371 99.9616 42.7447C103.834 43.2542 103.12 30.8227 103.834 31.9436C104.547 33.0645 108.317 33.4721 111.68 33.3702C115.042 33.2683 119.016 35.9176 121.36 36.6309C123.704 37.3442 122.583 44.3751 121.36 47.2282C120.382 49.5107 115.79 52.6627 113.616 53.9534C112.359 59.6597 110.212 71.4186 111.68 72.8044C113.514 74.5367 115.042 87.07 118.099 92.8782C121.156 98.6863 119.322 126.097 119.322 127.218C119.322 128.338 119.526 130.784 118.507 131.599C117.488 132.414 118.813 134.758 118.507 136.388C118.201 138.019 113.106 135.879 110.253 136.388C107.4 136.898 106.687 135.471 105.77 134.758C104.853 134.045 104.751 136.388 103.528 135.471C102.305 134.554 100.267 136.898 99.0445 137.713C97.8217 138.528 93.3382 136.388 92.5231 136.898C91.7079 137.407 90.3832 138.834 90.587 136.388Z" fill="white"/>
<path d="M79.5821 31.0265C78.4408 32.8199 80.669 35.9176 81.9257 37.2422C82.5711 36.5969 84.2897 35.1431 86.0016 34.491C88.1414 33.6758 89.6699 34.8986 89.8737 35.3062C90.0775 35.7138 95.8856 38.465 98.4331 38.2612C100.98 38.0574 102.459 38.2612 103.071 38.2612C103.682 38.2612 103.885 32.6934 104.191 32.4896C104.497 32.2858 106.432 33.0497 106.432 33.0497C106.432 33.0497 106.483 30.1094 105.872 29.1923C105.26 28.2753 101.898 14.9267 100.267 11.1565C98.6369 7.38632 94.7648 6.57115 92.3192 5.85787C90.3628 5.28724 87.2923 7.18253 86.0016 8.2015C82.5371 9.32237 81.9257 17.2704 81.5181 19.1045C81.1105 20.9387 81.0086 28.7848 79.5821 31.0265Z" fill="#AE8C44"/>
<path d="M36.7183 74.8985C34.7619 72.453 34.6125 62.0594 34.7823 57.1684C34.8328 53.3982 44.3606 51.2583 45.3796 51.564C46.3986 51.8697 46.9081 73.7776 47.2137 74.8985C47.5194 76.0194 64.1287 77.5478 66.9818 77.5478C69.8349 77.5478 76.3564 73.6757 79.0057 73.7776C81.655 73.8795 80.4323 77.1402 80.2285 82.0313C80.0247 86.9224 72.1786 83.8654 70.5482 83.4579C68.9179 83.0503 54.7541 85.0882 48.0289 84.8844C41.3037 84.6806 39.1639 77.9554 36.7183 74.8985Z" fill="#DD9A7D"/>
<path d="M40.1447 73.5675C40.9577 73.6279 44.8651 63.3963 46 54.9999L50.6195 71.485C50.3458 72.4183 49.3864 75.1535 47.7386 78.6277C45.6788 82.9705 41.095 81.4037 38.1742 82.2084C35.2534 83.0131 26.2555 78.9724 18.7358 78.4136C11.2162 77.8547 10.7163 74.9565 10.638 71.8854C10.5598 68.8142 16.043 70.6522 17.3715 70.6488C18.7001 70.6453 12.818 68.6755 14.3237 67.6634C15.8294 66.6514 21.8049 71.4892 22.7682 72.276C23.7315 73.0629 39.3318 73.5071 40.1447 73.5675Z" fill="#B36C4E"/>
<path d="M114.833 61.8766C116.565 61.5709 115.648 56.476 115.648 54.3362L123.596 62.5899C122.174 68.7037 121.66 68.7037 113.101 71.2511C104.541 73.7986 97.918 74.4099 90.6833 73.391C84.8955 72.5758 88.7472 68.2282 91.3965 66.1563C93.6383 65.7487 97.0009 67.7866 99.1407 68.7037C101.281 69.6208 113.101 62.1823 114.833 61.8766Z" fill="#A75F40"/>
<path d="M96.8025 80.8544C94.1124 82.5662 85.2202 72.6007 81.1104 67.4039L87.0204 56.8066C90.9944 59.0484 95.376 75.0462 96.8025 71.276C98.2291 67.5058 107.807 66.2831 108.521 61.4939C109.234 56.7047 112.291 54.6668 113.616 54.5649C114.94 54.463 114.533 58.0294 114.431 61.4939C114.329 64.9584 100.165 78.7145 96.8025 80.8544Z" fill="#B36C4E"/>
</svg>
