<svg width="43" height="15" viewBox="0 0 43 15" fill="none" xmlns="http://www.w3.org/2000/svg">
<path d="M0.500019 3.50005C-0.299981 4.30005 1.50002 7.50005 2.50002 9.00005L18.5 10.0001C19 8.50006 20 5.20006 20 4.00006C20 2.50006 19 2.00006 18.5 2.50006C18 3.00006 17 1.50004 16 1.00006C15 0.500084 13.5 2.50006 13.5 2.00006C13.5 1.50015 11.5007 1.50006 11.0003 1.50004H11C10.5 1.50001 9.5 0.500038 8.5 1.00004C7.5 1.50004 7.5 3.77595e-05 6.5 0.500038C5.5 1.00004 7.5 1.50004 5 1.50004C3 1.50004 2.5 3.50004 2.5 4.50005C2.16667 3.83338 1.30002 2.70005 0.500019 3.50005Z" fill="#4BC445"/>
<path d="M10 6.50006C7.6 6.10006 7 7.66672 7 8.50006C7 10.5001 18.5 11.0001 19 9.00006C19.5 7.00006 18 6.00006 15.5 6.00006C13.5 6.00006 13 7.66673 13 8.50006C13 8.00006 12.4 6.90006 10 6.50006Z" fill="#B7161E"/>
<path d="M5 14.0001C3.4 14.0001 2.66667 10.6667 2.5 9.00007C8.33333 8.16674 20 9.00007 20 9.00007C20 11.0001 18 13.1667 17 14.0001H5Z" fill="#C88AE6"/>
<path d="M23.2024 6.939C22.3902 7.43882 24.2177 9.43807 25.2329 10.3752L41.4771 11C41.9847 10.0628 43 8.00112 43 7.2514C43 6.31425 41.9847 6.00186 41.4771 6.31425C40.9695 6.62663 39.9542 5.68946 38.9389 5.37709C37.9237 5.06473 36.4008 6.31425 36.4008 6.00186C36.4008 5.68954 34.371 5.68948 33.8629 5.68946H33.8626C33.355 5.68945 32.3397 5.0647 31.3245 5.37708C30.3092 5.68946 30.3092 4.75231 29.294 5.0647C28.2787 5.37708 30.3092 5.68946 27.7711 5.68946C25.7405 5.68946 25.2329 6.939 25.2329 7.56377C24.8945 7.14726 24.0146 6.43919 23.2024 6.939Z" fill="#AF9E08"/>
<path d="M32.6993 7.10357C30.2993 6.70357 29.6993 8.27024 29.6993 9.10357C29.6993 11.1036 41.1993 11.6036 41.6993 9.60358C42.1993 7.60358 40.6993 6.60358 38.1993 6.60358C36.1993 6.60358 35.6993 8.27024 35.6993 9.10358C35.6993 8.60357 35.0993 7.50357 32.6993 7.10357Z" fill="#245C1B"/>
<path d="M27.6993 14.6036C26.0993 14.6036 25.366 11.2703 25.1993 9.60359C31.0327 8.77025 42.6993 9.60359 42.6993 9.60359C42.6993 11.6036 40.6993 13.7703 39.6993 14.6036H27.6993Z" fill="#EC7837"/>
</svg>
