<svg width="231" height="305" viewBox="0 0 231 305" fill="none" xmlns="http://www.w3.org/2000/svg">
<path d="M182.579 267.97L211.14 184.656L38.9037 231.594L182.579 267.97Z" fill="#2A625A"/>
<path d="M189.413 163.484C190.259 163.03 191.288 164.929 191.696 165.934L194.247 175.294L37.8053 217.928C40.2679 212.881 45.381 202.736 46.1331 202.531C47.0732 202.275 47.7818 204.875 49.098 204.516C50.4142 204.157 48.2941 200.825 50.1744 200.313C52.0547 199.8 51.7522 202.396 53.0685 202.038C54.3847 201.679 52.8286 198.193 53.9568 197.885C55.085 197.578 55.2294 200.331 56.5457 199.973C57.8619 199.614 55.9297 196.23 57.0579 195.923C58.1861 195.615 58.2843 198.94 59.6005 198.582C60.9167 198.223 59.9956 194.843 67.0454 191.805C74.0952 188.766 75.6294 193.655 78.4499 192.886C81.2703 192.118 80.5836 188.115 84.9083 186.936C89.233 185.758 90.1078 189.709 93.8684 188.684C97.629 187.659 96.3782 183.811 100.703 182.632C105.028 181.454 106.655 185.2 109.851 184.329C113.048 183.458 111.655 179.089 116.168 177.859C120.681 176.629 121.133 181.254 125.082 180.178C129.03 179.102 127.638 174.733 131.774 173.606C135.911 172.479 138.244 176.591 141.064 175.822C143.885 175.054 143.432 170.429 147.381 169.353C151.33 168.277 153.262 171.66 156.483 171.621C159.06 171.589 161.642 167.328 162.611 165.202C165.863 164.781 172.518 163.899 173.119 163.735C173.871 163.53 174.558 167.532 175.498 167.276C176.439 167.02 175.776 163.849 176.716 163.593C177.657 163.336 177.52 167.284 178.719 167.236C179.918 167.189 179.139 164.329 180.384 163.71C181.63 163.092 182.129 167.145 183.398 167.358C184.668 167.57 183.769 162.788 186.053 165.238C188.336 167.688 188.355 164.052 189.413 163.484Z" fill="#2A625A"/>
<path d="M206.098 173.615L186.512 112.877L192.936 177.202L206.098 173.615Z" fill="#2A625A"/>
<path d="M33.8618 220.553L46.8359 217.018L3.4922 133.988L33.8618 220.553Z" fill="#2A625A"/>
<path d="M41.7987 109.783L63.6405 213.454C66.9061 210.613 71.9623 209.154 74.2369 209.347L41.7987 109.783Z" fill="#2A625A"/>
<path d="M154.246 93.9057L175.416 182.587C170.927 181.533 166.754 184.405 165.177 185.783L154.246 93.9057Z" fill="#2A625A"/>
<path d="M211.14 184.656L205.259 163.076C188.353 161.818 185.688 174.275 182.867 175.044C180.047 175.813 174.61 171.429 169.697 171.93C164.783 172.431 163.312 180.373 158.235 181.757C153.158 183.14 147.321 178.028 143.184 179.155C139.048 180.282 138.868 187.035 133.039 188.623C127.21 190.212 125.278 186.828 119.517 186.443C113.756 186.058 113.484 193.953 108.783 195.234C104.082 196.515 99.4045 191.086 94.8605 192.324C89.9717 193.657 86.9891 200.614 82.6931 201.785C78.3684 202.964 76.011 198.693 71.7573 199.458C62.7073 201.087 62.5247 205.606 59.5653 208.088C57.1977 210.074 49.4079 207.877 45.809 206.53C42.2101 205.183 33.0229 210.014 33.0229 210.014L38.9038 231.594L211.14 184.656Z" fill="#2A625A"/>
<path d="M100.071 -0.000488281L10.0757 22.6447H188.895L100.071 -0.000488281Z" fill="white"/>
<path d="M25.4978 41.5807C24.5607 41.7369 24.0662 40.2142 23.936 39.4333V32.4055H186.357C182.648 35.4639 175.034 41.5807 174.253 41.5807C173.277 41.5807 173.277 39.6286 171.911 39.6286C170.544 39.6286 171.715 42.3616 169.763 42.3616C167.811 42.3616 168.787 40.6046 167.421 40.6046C166.054 40.6046 166.64 43.3377 165.468 43.3377C164.297 43.3377 164.883 41.3855 163.516 41.3855C162.15 41.3855 163.126 44.1185 161.955 44.1185C160.783 44.1185 161.564 41.7759 160.198 41.7759C158.831 41.7759 158.831 44.3138 151.218 45.0946C143.604 45.8755 143.409 42.1664 140.481 42.1664C137.552 42.1664 137.162 45.0946 132.672 45.0946C128.182 45.0946 128.377 42.1664 124.473 42.1664C120.569 42.1664 120.764 45.0946 116.274 45.0946C111.784 45.0946 111.198 42.1664 107.879 42.1664C104.561 42.1664 104.756 45.4851 100.071 45.4851C95.3855 45.4851 96.1664 42.1664 92.0668 42.1664C87.9672 42.1664 88.1625 45.4851 83.8677 45.4851C79.5729 45.4851 78.4016 42.1664 75.4734 42.1664C72.5451 42.1664 71.7642 45.4851 67.6647 45.4851C63.5651 45.4851 62.589 42.752 59.4655 42.1664C56.9668 41.6979 53.3487 44.1836 51.8521 45.4851C48.5985 45.1597 41.9351 44.509 41.3104 44.509C40.5295 44.509 40.9199 41.5807 39.9438 41.5807C38.9678 41.5807 38.7725 43.9233 37.7965 43.9233C36.8204 43.9233 37.9917 41.1903 36.8204 40.9951C35.6491 40.7999 35.6491 42.9472 34.2825 43.1425C32.916 43.3377 33.5017 40.4094 32.3304 40.019C31.1591 39.6286 30.7686 43.1425 29.2069 40.9951C27.6452 38.8477 26.6691 41.3855 25.4978 41.5807Z" fill="#C4C4C4"/>
<path d="M10.0756 38.262L5 143.874L23.7408 38.262H10.0756Z" fill="white"/>
<path d="M188.895 38.262H175.425L193.97 143.874L188.895 38.262Z" fill="white"/>
<path d="M158.245 112.64V37.2859C154.341 39.16 149.07 39.2381 146.923 38.4572L158.245 112.64Z" fill="white"/>
<path d="M42.0913 112.64V37.6763C46.1518 39.8628 50.9411 38.1969 52.8282 37.2859L42.0913 112.64Z" fill="white"/>
<path d="M10.0757 22.6448V38.8478C26.0835 42.9474 31.94 34.7482 34.8683 34.7482C37.7965 34.7482 41.8961 38.8478 46.7765 39.4334C51.6569 40.0191 55.1708 34.7482 60.4417 34.7482C65.7126 34.7482 70.0073 39.4334 74.3021 39.4334C78.5969 39.4334 80.5491 34.7482 86.6008 34.7482C92.6525 34.7482 93.6286 37.4813 99.0947 38.8478C104.561 40.2143 106.903 34.7482 111.784 34.7482C116.664 34.7482 119.755 39.4334 124.473 39.4334C129.549 39.4334 134.264 35.1387 138.724 35.1387C143.214 35.1387 144.367 38.5725 148.68 38.8478C157.855 39.4334 159.222 36.31 162.735 35.1387C165.547 34.2016 172.496 37.221 175.62 38.8478C178.743 40.4746 188.895 38.8478 188.895 38.8478V22.6448H10.0757Z" fill="#EDEDED"/>
</svg>
